<svg width="25" height="27" viewBox="0 0 25 27" fill="none" xmlns="http://www.w3.org/2000/svg">
<g clip-path="url(#clip0_1151_1082)">
<path d="M12.097 22.7415C12.4727 22.7415 12.8331 22.8908 13.0987 23.1565C13.3644 23.4221 13.5137 23.7825 13.5137 24.1582C13.5137 24.5339 13.3644 24.8943 13.0987 25.1599C12.8331 25.4256 12.4727 25.5749 12.097 25.5749C11.7213 25.5749 11.3609 25.4256 11.0953 25.1599C10.8296 24.8943 10.6803 24.5339 10.6803 24.1582C10.6803 23.372 11.3108 22.7415 12.097 22.7415ZM0.763672 11.4082H3.07992L3.74576 12.8249H14.222C14.4099 12.8249 14.59 12.8995 14.7229 13.0323C14.8557 13.1652 14.9303 13.3453 14.9303 13.5332C14.9303 13.6536 14.8949 13.774 14.8453 13.8874L12.3095 18.4703C12.0687 18.9024 11.6012 19.1999 11.0699 19.1999H5.79284L5.15534 20.3545L5.13409 20.4395C5.13409 20.4864 5.15275 20.5315 5.18596 20.5647C5.21916 20.5979 5.26421 20.6165 5.31117 20.6165H13.5137V22.0332H5.01367C4.63795 22.0332 4.27761 21.8839 4.01194 21.6183C3.74626 21.3526 3.59701 20.9923 3.59701 20.6165C3.59701 20.3686 3.66076 20.1349 3.76701 19.9365L4.73034 18.2011L2.18034 12.8249H0.763672V11.4082ZM5.01367 22.7415C5.3894 22.7415 5.74973 22.8908 6.01541 23.1565C6.28108 23.4221 6.43034 23.7825 6.43034 24.1582C6.43034 24.5339 6.28108 24.8943 6.01541 25.1599C5.74973 25.4256 5.3894 25.5749 5.01367 25.5749C4.63795 25.5749 4.27761 25.4256 4.01194 25.1599C3.74626 24.8943 3.59701 24.5339 3.59701 24.1582C3.59701 23.372 4.22742 22.7415 5.01367 22.7415ZM11.3887 17.7832L13.3578 14.2415H4.40451L6.07617 17.7832H11.3887Z" fill="#F9F9F9"/>
</g>
<circle cx="16.5537" cy="8.05371" r="8.05371" fill="#720000"/>
<path d="M14.8792 6.57542C14.9055 6.22969 15.0389 5.95912 15.2795 5.7637C15.52 5.56829 15.8319 5.47058 16.2152 5.47058C16.4707 5.47058 16.6906 5.51756 16.8747 5.61151C17.0626 5.7017 17.2035 5.82571 17.2975 5.98354C17.3952 6.14138 17.444 6.31988 17.444 6.51905C17.444 6.75205 17.3764 6.9531 17.2411 7.1222C17.1096 7.29131 16.9367 7.40029 16.7225 7.44915V7.47733C16.9668 7.53746 17.1603 7.65583 17.3031 7.83246C17.4459 8.00908 17.5173 8.24019 17.5173 8.5258C17.5173 8.74 17.4685 8.93354 17.3708 9.1064C17.273 9.27551 17.1265 9.40892 16.9311 9.50662C16.7357 9.60433 16.5008 9.65318 16.2265 9.65318C15.8281 9.65318 15.5012 9.54984 15.2456 9.34315C14.9901 9.13271 14.8473 8.83583 14.8172 8.45252H15.3133C15.3396 8.678 15.4317 8.86214 15.5895 9.00494C15.7473 9.14774 15.9578 9.21914 16.2208 9.21914C16.4839 9.21914 16.683 9.1515 16.8183 9.01621C16.9574 8.87717 17.0269 8.69866 17.0269 8.4807C17.0269 8.19886 16.933 7.99593 16.7451 7.87192C16.5572 7.7479 16.2734 7.6859 15.8939 7.6859H15.7642V7.25749H15.8995C16.2452 7.25373 16.5064 7.19736 16.683 7.08838C16.8597 6.97564 16.948 6.80278 16.948 6.56978C16.948 6.37061 16.8822 6.2109 16.7507 6.09065C16.6229 5.97039 16.4388 5.91026 16.1983 5.91026C15.9653 5.91026 15.7774 5.97039 15.6346 6.09065C15.4918 6.2109 15.4072 6.37249 15.3809 6.57542H14.8792Z" fill="white"/>
<defs>
<clipPath id="clip0_1151_1082">
<rect width="17" height="17" fill="white" transform="translate(0.0546875 9.99219)"/>
</clipPath>
</defs>
</svg>
