<svg width="21" height="21" viewBox="0 0 21 21" fill="none" xmlns="http://www.w3.org/2000/svg">
<g clip-path="url(#clip0_22_7009)">
<path d="M18.4656 3.44998C18.3894 3.44213 18.3127 3.44213 18.2365 3.44998H2.58964C2.48936 3.45152 2.38974 3.46656 2.29347 3.49468L10.3684 11.536L18.4656 3.44998Z" fill="#F9F9F9"/>
<path d="M19.2927 4.22705L11.1564 12.3299C10.947 12.538 10.6637 12.6549 10.3684 12.6549C10.0732 12.6549 9.78991 12.538 9.58051 12.3299L1.51679 4.28852C1.492 4.37963 1.47886 4.47351 1.47768 4.56793V15.7442C1.47768 16.0407 1.59543 16.3249 1.80502 16.5345C2.01462 16.7441 2.29889 16.8619 2.59531 16.8619H18.2422C18.5386 16.8619 18.8228 16.7441 19.0324 16.5345C19.242 16.3249 19.3598 16.0407 19.3598 15.7442V4.56793C19.3553 4.4515 19.3327 4.33649 19.2927 4.22705ZM3.36089 15.7442H2.58413V14.9451L6.64672 10.9161L7.43465 11.704L3.36089 15.7442ZM18.231 15.7442H17.4486L13.3749 11.704L14.1628 10.9161L18.2254 14.9451L18.231 15.7442Z" fill="#F9F9F9"/>
</g>
<defs>
<clipPath id="clip0_22_7009">
<rect width="20.1174" height="20.1174" fill="white" transform="translate(0.399078 0.097168)"/>
</clipPath>
</defs>
</svg>
