<svg width="19" height="19" viewBox="0 0 19 19" fill="none" xmlns="http://www.w3.org/2000/svg">
<g clip-path="url(#clip0_5_569)">
<path d="M9.34769 9.00763C10.0206 9.00763 10.6784 8.80808 11.2379 8.43423C11.7975 8.06037 12.2336 7.52899 12.4911 6.90729C12.7486 6.28559 12.816 5.60148 12.6847 4.94149C12.5534 4.28149 12.2294 3.67524 11.7535 3.19941C11.2777 2.72358 10.6715 2.39954 10.0115 2.26826C9.35146 2.13698 8.66736 2.20436 8.04565 2.46187C7.42395 2.71939 6.89257 3.15548 6.51872 3.715C6.14486 4.27452 5.94531 4.93233 5.94531 5.60526C5.94531 6.50762 6.30378 7.37303 6.94184 8.0111C7.57991 8.64917 8.44532 9.00763 9.34769 9.00763ZM9.34769 3.17499C9.82835 3.17499 10.2982 3.31752 10.6979 3.58456C11.0975 3.8516 11.409 4.23116 11.593 4.67523C11.7769 5.11931 11.825 5.60795 11.7313 6.07938C11.6375 6.5508 11.406 6.98384 11.0661 7.32371C10.7263 7.66359 10.2932 7.89505 9.82181 7.98883C9.35038 8.0826 8.86174 8.03447 8.41766 7.85053C7.97359 7.66659 7.59403 7.35509 7.32699 6.95544C7.05995 6.55578 6.91742 6.08592 6.91742 5.60526C6.91742 4.96071 7.17346 4.34256 7.62923 3.8868C8.08499 3.43103 8.70314 3.17499 9.34769 3.17499Z" fill="#F9F9F9"/>
<path d="M15.4086 12.5896C14.6291 11.7657 13.6898 11.1095 12.6481 10.661C11.6063 10.2125 10.4841 9.9812 9.34993 9.9812C8.21577 9.9812 7.09352 10.2125 6.0518 10.661C5.01007 11.1095 4.07076 11.7657 3.29128 12.5896C3.12228 12.7701 3.02843 13.0082 3.02881 13.2554V15.8121C3.02881 16.0699 3.13123 16.3172 3.31353 16.4995C3.49584 16.6818 3.7431 16.7842 4.00092 16.7842H14.6941C14.9519 16.7842 15.1992 16.6818 15.3815 16.4995C15.5638 16.3172 15.6662 16.0699 15.6662 15.8121V13.2554C15.6679 13.0088 15.5758 12.7708 15.4086 12.5896ZM14.6941 15.8121H4.00092V13.2506C4.68976 12.5252 5.519 11.9476 6.43816 11.5529C7.35732 11.1582 8.34718 10.9547 9.3475 10.9547C10.3478 10.9547 11.3377 11.1582 12.2568 11.5529C13.176 11.9476 14.0052 12.5252 14.6941 13.2506V15.8121Z" fill="#F9F9F9"/>
</g>
<defs>
<clipPath id="clip0_5_569">
<rect width="17.4979" height="17.4979" fill="white" transform="translate(0.598633 0.744629)"/>
</clipPath>
</defs>
</svg>
