<svg width="18" height="19" viewBox="0 0 18 19" fill="none" xmlns="http://www.w3.org/2000/svg">
<g clip-path="url(#clip0_5_563)">
<path d="M8.85931 1.32793L9.23843 0.884651C9.13279 0.794286 8.99834 0.744629 8.85931 0.744629C8.72029 0.744629 8.58584 0.794286 8.48019 0.884651L8.85931 1.32793ZM0.693616 8.3271L0.314494 7.88382L0.110352 8.0588V8.3271H0.693616ZM6.52626 17.6593V18.2426C6.68095 18.2426 6.8293 18.1811 6.93869 18.0718C7.04807 17.9624 7.10952 17.814 7.10952 17.6593H6.52626ZM11.1924 17.6593H10.6091C10.6091 17.814 10.6706 17.9624 10.7799 18.0718C10.8893 18.1811 11.0377 18.2426 11.1924 18.2426V17.6593ZM17.025 8.3271H17.6083V8.0588L17.4041 7.88382L17.025 8.3271ZM1.86014 18.2426H6.52626V17.0761H1.86014V18.2426ZM17.4041 7.88382L9.23843 0.884651L8.48019 1.77121L16.6459 8.77038L17.4041 7.88382ZM8.48019 0.884651L0.314494 7.88382L1.07274 8.77038L9.23843 1.77121L8.48019 0.884651ZM7.10952 17.6593V14.1597H5.94299V17.6593H7.10952ZM10.6091 14.1597V17.6593H11.7756V14.1597H10.6091ZM11.1924 18.2426H15.8585V17.0761H11.1924V18.2426ZM17.6083 16.4928V8.3271H16.4417V16.4928H17.6083ZM0.110352 8.3271V16.4928H1.27688V8.3271H0.110352ZM8.85931 12.4099C9.32339 12.4099 9.76845 12.5943 10.0966 12.9225C10.4248 13.2506 10.6091 13.6957 10.6091 14.1597H11.7756C11.7756 13.3863 11.4684 12.6445 10.9215 12.0976C10.3745 11.5507 9.63277 11.2434 8.85931 11.2434V12.4099ZM8.85931 11.2434C8.08586 11.2434 7.34408 11.5507 6.79716 12.0976C6.25025 12.6445 5.94299 13.3863 5.94299 14.1597H7.10952C7.10952 13.6957 7.29387 13.2506 7.62202 12.9225C7.95017 12.5943 8.39524 12.4099 8.85931 12.4099V11.2434ZM15.8585 18.2426C16.3226 18.2426 16.7676 18.0582 17.0958 17.7301C17.4239 17.4019 17.6083 16.9569 17.6083 16.4928H16.4417C16.4417 16.6475 16.3803 16.7958 16.2709 16.9052C16.1615 17.0146 16.0132 17.0761 15.8585 17.0761V18.2426ZM1.86014 17.0761C1.70545 17.0761 1.5571 17.0146 1.44771 16.9052C1.33833 16.7958 1.27688 16.6475 1.27688 16.4928H0.110352C0.110352 16.9569 0.294704 17.4019 0.622854 17.7301C0.951004 18.0582 1.39607 18.2426 1.86014 18.2426V17.0761Z" fill="#F9F9F9"/>
</g>
<defs>
<clipPath id="clip0_5_563">
<rect width="17.4979" height="17.4979" fill="white" transform="translate(0.110352 0.744629)"/>
</clipPath>
</defs>
</svg>
