<svg width="18" height="17" viewBox="0 0 18 17" fill="none" xmlns="http://www.w3.org/2000/svg">
<g clip-path="url(#clip0_5_585)">
<path d="M12.097 12.7437C12.4727 12.7437 12.8331 12.893 13.0987 13.1587C13.3644 13.4243 13.5137 13.7847 13.5137 14.1604C13.5137 14.5361 13.3644 14.8965 13.0987 15.1621C12.8331 15.4278 12.4727 15.5771 12.097 15.5771C11.7213 15.5771 11.3609 15.4278 11.0953 15.1621C10.8296 14.8965 10.6803 14.5361 10.6803 14.1604C10.6803 13.3742 11.3108 12.7437 12.097 12.7437ZM0.763672 1.4104H3.07992L3.74576 2.82707H14.222C14.4099 2.82707 14.59 2.9017 14.7229 3.03453C14.8557 3.16737 14.9303 3.34754 14.9303 3.5354C14.9303 3.65582 14.8949 3.77623 14.8453 3.88957L12.3095 8.47248C12.0687 8.90457 11.6012 9.20207 11.0699 9.20207H5.79284L5.15534 10.3567L5.13409 10.4417C5.13409 10.4886 5.15275 10.5337 5.18596 10.5669C5.21916 10.6001 5.26421 10.6187 5.31117 10.6187H13.5137V12.0354H5.01367C4.63795 12.0354 4.27761 11.8861 4.01194 11.6205C3.74626 11.3548 3.59701 10.9945 3.59701 10.6187C3.59701 10.3708 3.66076 10.1371 3.76701 9.93873L4.73034 8.20332L2.18034 2.82707H0.763672V1.4104ZM5.01367 12.7437C5.3894 12.7437 5.74973 12.893 6.01541 13.1587C6.28108 13.4243 6.43034 13.7847 6.43034 14.1604C6.43034 14.5361 6.28108 14.8965 6.01541 15.1621C5.74973 15.4278 5.3894 15.5771 5.01367 15.5771C4.63795 15.5771 4.27761 15.4278 4.01194 15.1621C3.74626 14.8965 3.59701 14.5361 3.59701 14.1604C3.59701 13.3742 4.22742 12.7437 5.01367 12.7437ZM11.3887 7.7854L13.3578 4.24373H4.40451L6.07617 7.7854H11.3887Z" fill="#F9F9F9"/>
</g>
<defs>
<clipPath id="clip0_5_585">
<rect width="17" height="17" fill="white" transform="translate(0.0551758 -0.00634766)"/>
</clipPath>
</defs>
</svg>
