<svg width="21" height="21" viewBox="0 0 21 21" fill="none" xmlns="http://www.w3.org/2000/svg">
<path d="M12.9725 10.3809H14.649C14.649 9.26937 14.2074 8.20335 13.4214 7.41736C12.6354 6.63137 11.5694 6.18981 10.4578 6.18981V7.86626C11.1248 7.86626 11.7644 8.13119 12.236 8.60279C12.7076 9.07438 12.9725 9.714 12.9725 10.3809ZM16.3254 10.3809H18.0019C18.0019 6.18981 14.6238 2.83691 10.4578 2.83691V4.51336C13.6934 4.51336 16.3254 7.137 16.3254 10.3809ZM17.1636 13.3147C16.1159 13.3147 15.11 13.1471 14.1712 12.8369C13.8778 12.7447 13.5509 12.8118 13.3162 13.0465L11.4721 14.8906C9.09432 13.6779 7.16087 11.7445 5.9482 9.36668L7.7923 7.52258C8.027 7.28788 8.09406 6.96098 8.00185 6.6676C7.68387 5.70201 7.52257 4.69173 7.52406 3.67514C7.52406 3.45283 7.43575 3.23962 7.27855 3.08242C7.12136 2.92523 6.90815 2.83691 6.68584 2.83691H3.75206C3.52975 2.83691 3.31654 2.92523 3.15934 3.08242C3.00215 3.23962 2.91383 3.45283 2.91383 3.67514C2.91383 7.45442 4.41515 11.0789 7.0875 13.7513C9.75986 16.4236 13.3844 17.9249 17.1636 17.9249C17.3859 17.9249 17.5992 17.8366 17.7564 17.6794C17.9135 17.5222 18.0019 17.309 18.0019 17.0867V14.1529C18.0019 13.9306 17.9135 13.7174 17.7564 13.5602C17.5992 13.403 17.3859 13.3147 17.1636 13.3147Z" fill="#F9F9F9"/>
</svg>
