<svg width="21" height="21" viewBox="0 0 21 21" fill="none" xmlns="http://www.w3.org/2000/svg">
<path d="M10.4353 1.52148C6.97246 1.52148 4.1627 4.05619 4.1627 7.17949C4.1627 12.2088 10.4353 19.1242 10.4353 19.1242C10.4353 19.1242 16.708 12.2088 16.708 7.17949C16.708 4.05619 13.8982 1.52148 10.4353 1.52148ZM10.4353 10.3228C9.9391 10.3228 9.454 10.1754 9.04139 9.89904C8.62878 9.62272 8.30719 9.22998 8.11728 8.77049C7.92738 8.31099 7.87769 7.80537 7.9745 7.31757C8.07131 6.82978 8.31028 6.3817 8.66118 6.03002C9.01207 5.67834 9.45915 5.43884 9.94586 5.34181C10.4326 5.24478 10.9371 5.29458 11.3955 5.48491C11.854 5.67524 12.2459 5.99755 12.5216 6.41109C12.7973 6.82462 12.9444 7.31081 12.9444 7.80816C12.9437 8.47487 12.6791 9.11407 12.2087 9.5855C11.7383 10.0569 11.1006 10.3221 10.4353 10.3228Z" fill="#F9F9F9"/>
</svg>
