<svg width="19" height="19" viewBox="0 0 19 19" fill="none" xmlns="http://www.w3.org/2000/svg">
<path d="M5.92945 11.7407C5.81024 11.7407 5.69592 11.6934 5.61163 11.6091C5.52734 11.5248 5.47998 11.4105 5.47998 11.2913C5.47998 11.1721 5.52734 11.0577 5.61163 10.9734C5.69592 10.8892 5.81024 10.8418 5.92945 10.8418H12.222C12.3412 10.8418 12.4556 10.8892 12.5399 10.9734C12.6241 11.0577 12.6715 11.1721 12.6715 11.2913C12.6715 11.4105 12.6241 11.5248 12.5399 11.6091C12.4556 11.6934 12.3412 11.7407 12.222 11.7407H5.92945ZM5.92945 13.9881C5.81024 13.9881 5.69592 13.9407 5.61163 13.8564C5.52734 13.7721 5.47998 13.6578 5.47998 13.5386C5.47998 13.4194 5.52734 13.3051 5.61163 13.2208C5.69592 13.1365 5.81024 13.0891 5.92945 13.0891H12.222C12.3412 13.0891 12.4556 13.1365 12.5399 13.2208C12.6241 13.3051 12.6715 13.4194 12.6715 13.5386C12.6715 13.6578 12.6241 13.7721 12.5399 13.8564C12.4556 13.9407 12.3412 13.9881 12.222 13.9881H5.92945Z" fill="#9C5E29"/>
<path fill-rule="evenodd" clip-rule="evenodd" d="M10.141 1.40308H4.13161C3.77399 1.40308 3.43102 1.54514 3.17814 1.79802C2.92527 2.05089 2.7832 2.39387 2.7832 2.75149V16.2356C2.7832 16.5932 2.92527 16.9362 3.17814 17.189C3.43102 17.4419 3.77399 17.584 4.13161 17.584H14.0199C14.3776 17.584 14.7205 17.4419 14.9734 17.189C15.2263 16.9362 15.3684 16.5932 15.3684 16.2356V6.9783C15.3683 6.64072 15.2416 6.31546 15.0133 6.06678L11.1353 1.83996C11.0089 1.70219 10.8552 1.59221 10.6841 1.517C10.5129 1.44179 10.328 1.403 10.141 1.40308ZM3.68214 2.75149C3.68214 2.63228 3.7295 2.51795 3.81379 2.43366C3.89808 2.34937 4.01241 2.30202 4.13161 2.30202H10.141C10.2034 2.30195 10.2651 2.31486 10.3222 2.33993C10.3793 2.365 10.4306 2.40168 10.4727 2.44764L14.3508 6.67446C14.427 6.75731 14.4693 6.86573 14.4694 6.9783V16.2356C14.4694 16.3548 14.4221 16.4691 14.3378 16.5534C14.2535 16.6377 14.1392 16.6851 14.0199 16.6851H4.13161C4.01241 16.6851 3.89808 16.6377 3.81379 16.5534C3.7295 16.4691 3.68214 16.3548 3.68214 16.2356V2.75149Z" fill="#9C5E29"/>
<path d="M10.4243 2.39185V6.61686H14.6493" stroke="#9C5E29" stroke-width="0.89894" stroke-linecap="round" stroke-linejoin="round"/>
<path d="M7.39856 6.01725C7.52693 6.02118 7.65478 5.99929 7.77453 5.95288C7.89429 5.90647 8.0035 5.83648 8.09569 5.74707C8.18789 5.65766 8.26118 5.55064 8.31124 5.43236C8.36129 5.31409 8.38709 5.18697 8.38709 5.05853C8.38709 4.9301 8.36129 4.80298 8.31124 4.6847C8.26118 4.56643 8.18789 4.45941 8.09569 4.37C8.0035 4.28058 7.89429 4.2106 7.77453 4.16418C7.65478 4.11777 7.52693 4.09588 7.39856 4.09981C7.14937 4.10745 6.91295 4.2118 6.73938 4.39076C6.56582 4.56972 6.46875 4.80923 6.46875 5.05853C6.46875 5.30784 6.56582 5.54735 6.73938 5.72631C6.91295 5.90527 7.14937 6.00962 7.39856 6.01725Z" fill="#9C5E29"/>
<path fill-rule="evenodd" clip-rule="evenodd" d="M9.31486 8.09459C9.31486 7.07519 8.45637 6.33716 7.39742 6.33716C6.33847 6.33716 5.47998 7.07429 5.47998 8.09459V8.57462C5.48022 8.65934 5.51404 8.74051 5.57403 8.80033C5.63402 8.86015 5.71528 8.89374 5.8 8.89374H8.99573C9.0803 8.89351 9.16133 8.85981 9.22113 8.80001C9.28092 8.74022 9.31462 8.65918 9.31486 8.57462V8.09459Z" fill="#9C5E29"/>
</svg>
